<svg width="65" height="65" viewBox="0 0 65 65" fill="none" xmlns="http://www.w3.org/2000/svg">
<g filter="url(#filter0_d_604_787)">
<path d="M28.3051 15.9088L49.0959 21.4797C49.5201 21.5933 49.8817 21.8708 50.1013 22.2511C50.3208 22.6314 50.3803 23.0834 50.2667 23.5075L44.6958 44.2983C44.5821 44.7224 44.3046 45.0841 43.9244 45.3036C43.5441 45.5232 43.0921 45.5827 42.668 45.469C42.2438 45.3554 41.8822 45.0779 41.6626 44.6976C41.4431 44.3173 41.3836 43.8654 41.4972 43.4412L46.0337 26.5107L17.0506 43.2458C16.6701 43.4655 16.2179 43.525 15.7935 43.4113C15.3691 43.2976 15.0073 43.02 14.7876 42.6395C14.5679 42.259 14.5084 41.8068 14.6221 41.3824C14.7358 40.958 15.0135 40.5961 15.394 40.3765L44.3786 23.6439L27.4481 19.1074C27.0239 18.9938 26.6623 18.7163 26.4427 18.336C26.2232 17.9557 26.1637 17.5037 26.2773 17.0796C26.391 16.6554 26.6685 16.2938 27.0488 16.0742C27.4291 15.8547 27.881 15.7952 28.3051 15.9088Z" fill="white"/>
</g>
<defs>
<filter id="filter0_d_604_787" x="10.5654" y="15.8524" width="43.7578" height="37.673" filterUnits="userSpaceOnUse" color-interpolation-filters="sRGB">
<feFlood flood-opacity="0" result="BackgroundImageFix"/>
<feColorMatrix in="SourceAlpha" type="matrix" values="0 0 0 0 0 0 0 0 0 0 0 0 0 0 0 0 0 0 127 0" result="hardAlpha"/>
<feOffset dy="4"/>
<feGaussianBlur stdDeviation="2"/>
<feComposite in2="hardAlpha" operator="out"/>
<feColorMatrix type="matrix" values="0 0 0 0 0 0 0 0 0 0 0 0 0 0 0 0 0 0 0.25 0"/>
<feBlend mode="normal" in2="BackgroundImageFix" result="effect1_dropShadow_604_787"/>
<feBlend mode="normal" in="SourceGraphic" in2="effect1_dropShadow_604_787" result="shape"/>
</filter>
</defs>
</svg>
