<svg width="68" height="68" viewBox="0 0 68 68" fill="none" xmlns="http://www.w3.org/2000/svg">
<path opacity="0.2" d="M25.5 55.25L46.75 34L25.5 12.75L25.5 55.25Z" fill="#343330"/>
<path d="M24.6872 57.2129C24.2989 57.0522 23.9669 56.7799 23.7334 56.4305C23.4998 56.0811 23.3751 55.6702 23.375 55.25L23.375 12.75C23.3747 12.3294 23.4991 11.9183 23.7326 11.5685C23.9661 11.2187 24.2981 10.9461 24.6866 10.7851C25.0751 10.6242 25.5026 10.5821 25.915 10.6642C26.3275 10.7463 26.7062 10.949 27.0034 11.2465L48.2534 32.4965C48.451 32.6939 48.6078 32.9282 48.7147 33.1862C48.8216 33.4442 48.8767 33.7207 48.8767 34C48.8767 34.2792 48.8216 34.5557 48.7147 34.8137C48.6078 35.0717 48.451 35.306 48.2534 35.5034L27.0034 56.7534C26.7061 57.0505 26.3273 57.2527 25.915 57.3345C25.5027 57.4163 25.0754 57.374 24.6872 57.2129ZM43.7458 34L27.625 17.8792L27.625 50.1207L43.7458 34Z" fill="#05482C"/>
</svg>
