<svg width="68" height="68" viewBox="0 0 68 68" fill="none" xmlns="http://www.w3.org/2000/svg">
<path opacity="0.2" d="M42.5 55.25L21.25 34L42.5 12.75L42.5 55.25Z" fill="#343330"/>
<path d="M43.3128 57.2129C43.7011 57.0522 44.0331 56.7799 44.2666 56.4305C44.5002 56.0811 44.6249 55.6702 44.625 55.25L44.625 12.75C44.6253 12.3294 44.5009 11.9183 44.2674 11.5685C44.0339 11.2187 43.7019 10.9461 43.3134 10.7851C42.9249 10.6242 42.4974 10.5821 42.085 10.6642C41.6725 10.7463 41.2938 10.949 40.9966 11.2465L19.7466 32.4965C19.549 32.6939 19.3923 32.9282 19.2853 33.1862C19.1784 33.4442 19.1233 33.7207 19.1233 34C19.1233 34.2792 19.1784 34.5557 19.2853 34.8137C19.3923 35.0717 19.549 35.306 19.7466 35.5034L40.9966 56.7534C41.2939 57.0505 41.6727 57.2527 42.085 57.3345C42.4973 57.4163 42.9246 57.374 43.3128 57.2129ZM24.2542 34L40.375 17.8792L40.375 50.1207L24.2542 34Z" fill="#05482C"/>
</svg>
