<svg width="19" height="18" viewBox="0 0 19 18" fill="none" xmlns="http://www.w3.org/2000/svg">
<path d="M17.6526 7.41343C17.9652 9.27154 17.6792 11.1809 16.8359 12.8659C15.9926 14.5508 14.6356 15.9242 12.9608 16.7876C11.2861 17.6511 9.3803 17.96 7.51858 17.6697C5.65685 17.3794 3.93556 16.5049 2.60321 15.1726C1.27087 13.8403 0.396422 12.119 0.106127 10.2572C-0.184168 8.39551 0.124711 6.4897 0.988167 4.81497C1.85162 3.14024 3.22497 1.78325 4.90993 0.939922C6.59489 0.0965986 8.50427 -0.189418 10.3624 0.123168C10.54 0.154577 10.698 0.254846 10.8021 0.402164C10.9061 0.549481 10.9478 0.731931 10.9181 0.909823C10.8883 1.08772 10.7895 1.24666 10.6432 1.35209C10.4968 1.45751 10.3147 1.50088 10.1366 1.47277C9.05736 1.29122 7.95153 1.34703 6.89606 1.6363C5.84059 1.92558 4.86084 2.44138 4.02498 3.14781C3.18912 3.85423 2.51724 4.73431 2.05609 5.7268C1.59495 6.7193 1.35561 7.80035 1.35475 8.89475C1.35312 10.7371 2.03027 12.5156 3.25685 13.8903C3.75429 13.1688 4.38618 12.55 5.1179 12.0678C5.18037 12.0264 5.25471 12.0066 5.3295 12.0116C5.40428 12.0165 5.47538 12.0459 5.53185 12.0951C6.46132 12.8994 7.64935 13.3421 8.8785 13.3421C10.1076 13.3421 11.2957 12.8994 12.2251 12.0951C12.2816 12.0459 12.3527 12.0165 12.4275 12.0116C12.5023 12.0066 12.5766 12.0264 12.6391 12.0678C13.3715 12.55 14.0043 13.1688 14.5027 13.8903C15.7302 12.516 16.4083 10.7375 16.4074 8.89475C16.4074 8.47407 16.3725 8.05412 16.303 7.63922C16.2873 7.55022 16.2893 7.45897 16.3091 7.37077C16.3288 7.28256 16.3658 7.19913 16.4179 7.12531C16.4701 7.05149 16.5364 6.98872 16.6129 6.94065C16.6894 6.89258 16.7747 6.86015 16.8639 6.84524C16.953 6.83032 17.0443 6.83322 17.1323 6.85376C17.2203 6.8743 17.3034 6.91208 17.3767 6.96491C17.4501 7.01774 17.5122 7.08458 17.5596 7.16156C17.6069 7.23854 17.6386 7.32415 17.6526 7.41343ZM5.1179 8.21054C5.1179 8.95482 5.33861 9.68239 5.75211 10.3012C6.16561 10.9201 6.75334 11.4024 7.44096 11.6872C8.12859 11.9721 8.88524 12.0466 9.61522 11.9014C10.3452 11.7562 11.0157 11.3978 11.542 10.8715C12.0683 10.3452 12.4267 9.67467 12.5719 8.94469C12.7171 8.21471 12.6426 7.45807 12.3578 6.77044C12.0729 6.08281 11.5906 5.49509 10.9718 5.08158C10.3529 4.66808 9.62534 4.44738 8.88106 4.44738C7.88301 4.44738 6.92584 4.84385 6.22011 5.54958C5.51438 6.25531 5.1179 7.21248 5.1179 8.21054ZM18.2599 0.884352C18.1963 0.820736 18.1209 0.77027 18.0378 0.735837C17.9547 0.701405 17.8657 0.683682 17.7758 0.683682C17.6859 0.683682 17.5968 0.701405 17.5138 0.735837C17.4307 0.77027 17.3553 0.820736 17.2917 0.884352L15.039 3.13797L14.1546 2.25277C14.091 2.1892 14.0156 2.13878 13.9325 2.10437C13.8495 2.06997 13.7604 2.05226 13.6705 2.05226C13.5806 2.05226 13.4916 2.06997 13.4086 2.10437C13.3255 2.13878 13.25 2.1892 13.1865 2.25277C13.1229 2.31634 13.0725 2.39181 13.0381 2.47487C13.0037 2.55793 12.9859 2.64695 12.9859 2.73685C12.9859 2.82675 13.0037 2.91578 13.0381 2.99883C13.0725 3.08189 13.1229 3.15736 13.1865 3.22093L14.5549 4.58935C14.6184 4.65297 14.6939 4.70343 14.7769 4.73787C14.86 4.7723 14.949 4.79002 15.039 4.79002C15.1289 4.79002 15.2179 4.7723 15.301 4.73787C15.384 4.70343 15.4595 4.65297 15.523 4.58935L18.2599 1.85251C18.3235 1.78897 18.374 1.7135 18.4084 1.63044C18.4428 1.54738 18.4605 1.45835 18.4605 1.36843C18.4605 1.27851 18.4428 1.18948 18.4084 1.10642C18.374 1.02336 18.3235 0.947897 18.2599 0.884352Z" fill="white"/>
</svg>
