<?xml version="1.0" encoding="UTF-8"?>
<svg id="Calque_1" data-name="Calque 1" xmlns="http://www.w3.org/2000/svg" viewBox="0 0 312.89 365.79">
  <path d="M217.98,135.22c2.99,3.21,10.1,3.21,13.17,6.41,3.61,3.75,1.22,11.01,3.08,15.55,2.39,5.8,11.25,6.08,11.14,13.97-.06,4.34-2.99,8.32-2.4,12.65.84,6.14,8.88,9.08,6,16.72-1.28,3.4-5.56,7.05-6,10.34-.72,5.3,3.53,10.35,1.99,15.68-1.2,4.15-8.22,6.6-10.22,10.31-2.54,4.73-.02,10.59-2.76,15.11s-9.7,3.93-13.39,7.52c-3.49,3.39-3.68,10.33-7.4,13.13-4.17,3.13-10.98.61-15.28,2.97-3.9,2.14-6.69,9.38-10.83,10.46-5.16,1.35-9.93-2.61-14.92-1.99s-9.52,7.35-14.82,6.79c-4.24-.45-8.36-6.06-12.3-6.73-5.03-.86-9.81,2.82-14.71,2.15-6.26-.85-7.78-10.88-14.9-11.71-2.8-.33-6.14,0-8.99-.51-7.44-1.35-6.08-10.68-10.72-14.75-3.36-2.95-9.93-3-12.75-6.64-3.31-4.29-.78-10.13-2.7-14.79s-9.64-6.79-10.81-11.24c-1.42-5.4,2.83-10.3,2.07-15.76-.62-4.43-7.16-8.74-6.78-14.05.32-4.52,6.18-8.48,6.78-13.01.75-5.67-4.51-11.16-1.56-16.77,1.34-2.55,6.27-5,8.4-7.19,4.01-4.1,2.04-9.66,3.17-14.7,1.61-7.13,10.87-5.8,14.94-10.16,2.9-3.1,2.93-9.77,6.17-12.56s9.13-1.77,13.17-2.31c6.19-.83,8.14-10.16,13.6-11.49,5.08-1.24,9.95,2.69,15.3,1.99s8.74-7.21,14.83-6.39c4.02.54,7.76,5.83,11.85,6.39,5.23.72,10-2.84,14.76-2.21,5.57.74,7.25,8.5,11.67,10.76,5.6,2.87,13.39-1.33,17.52,5.29,1.85,2.96,2.32,8.31,4.62,10.78ZM153.14,127.48c-54.64,2.69-85.68,64.63-54.22,109.89,28.56,41.08,90.58,39.37,116.81-3.19,29.32-47.57-7.02-109.43-62.59-106.69Z"/>
  <polygon points="156.63 0 171.46 30.23 205.3 35.36 181.43 59.58 186.67 93.15 156.39 77.64 125.84 92.77 131.09 59.19 107.21 35.55 141.04 30.22 155.79 .49 156.63 0"/>
  <path d="M168.04,292l-30.8,73.75c-.7.16-.74-.24-1.08-.63-.75-.87-1.78-2.54-2.5-3.58-6.32-9.22-12.11-18.84-18.36-28.11l-38.89,7.23,25.08-61.04,11.91,1.44c6.13,6.06,8.74,11.89,18.67,10.89,2.73-.28,7.02-2.2,9.52-1.84,1.91.27,6.94,4.39,9.47,5.38,4.42,1.74,7.87,1.4,12.06-.62.69-.33,4.66-3.12,4.93-2.86Z"/>
  <path d="M236.1,341.42l-38.51-7.93-22.13,32.25-15.74-38.59,14.98-35.93c.88-.81,4.88.66,6.45.78,6.74.51,9.01-1.58,13.33-6.09,1.36-1.42,2.78-4.19,4.59-4.91,3.32-1.31,8.42-.42,11.96-1.78l25.07,62.19Z"/>
  <path d="M280.2,80.6c.29.24-2.35,3.29-2.65,3.62-1.27,1.39-2.78,2.37-4.01,3.59-3.37,3.35-6.76,6.69-10,10.17.64,7.15,2.38,14.16,3.29,21.27.06.49.59,2.76-.12,2.78l-20.94-11.01-21.83,10.64,3.73-23.68-16.65-16.81c.36-.62.8-.46,1.32-.57,7.25-1.56,15.18-1.76,22.46-3.39l10.43-21.7,11.4,21.86,23.57,3.23Z"/>
  <path d="M101.51,80.99l-16.67,17,3.55,23.68-21.64-10.64-21.13,10.64,3.35-23.68c-5.14-5.24-10.22-10.6-15.51-15.69-.67-.64-2.35-.78-.18-1.67l22.73-3.41,10.52-21.7,11.4,21.86,23.58,3.61Z"/>
  <path d="M286.28,128.13l8.05,16.67c5.09.55,10.23,1.15,15.28,2.02.61.11,3.31.35,3.29.89l-13.25,13.01,2.99,18.35-16.85-8.28-16.6,8.28,2.99-18.35-12.87-13.01c.35-.6.82-.45,1.32-.58,5.31-1.32,11.42-1.16,16.77-2.62,3.18-4.74,5.02-11.21,8.05-15.89.24-.37-.04-.68.85-.49Z"/>
  <path d="M26.99,128.13l8.05,16.67c5.06.69,10.25,1.1,15.28,2.02.55.1,2.92.37,2.91.89l-12.86,13,2.98,18.36-16.53-8.35-16.92,8.35,2.98-18.36-12.86-13c.34-.59.83-.46,1.32-.58,5.24-1.33,11.57-1.31,16.93-2.46l7.65-15.92,1.08-.62Z"/>
  <path d="M150.86,134.32c54.71-3.99,88.69,57.34,55.74,101.37-31.23,41.74-96.7,29.09-111.07-20.8-10.94-37.98,15.79-77.69,55.32-80.57ZM195.8,171.48l-18.26-12.39-34.58,53.26c-.71.46-1.64-.84-2.11-1.34-3.55-3.78-6.58-8.45-10.26-12.16l-13.87,13.87,27.91,22.99,51.16-64.24Z"/>
</svg>