<svg width="98" height="98" viewBox="0 0 98 98" fill="none" xmlns="http://www.w3.org/2000/svg">
<path opacity="0.2" d="M85.3853 48.7914C85.3853 56.029 83.2391 63.104 79.2181 69.1218C75.1971 75.1396 69.482 79.8299 62.7954 82.5996C56.1088 85.3693 48.751 86.094 41.6525 84.682C34.554 83.27 28.0337 79.7848 22.9159 74.6671C17.7982 69.5494 14.313 63.029 12.901 55.9305C11.4891 48.832 12.2137 41.4743 14.9834 34.7876C17.7531 28.101 22.4434 22.3859 28.4612 18.3649C34.479 14.3439 41.554 12.1978 48.7916 12.1978C58.4968 12.1978 67.8046 16.0531 74.6672 22.9158C81.5299 29.7784 85.3853 39.0862 85.3853 48.7914Z" fill="#DCDCDC"/>
<path d="M48.7916 9.14844C40.9509 9.14844 33.2863 11.4735 26.767 15.8295C20.2477 20.1856 15.1665 26.377 12.1661 33.6208C9.16555 40.8647 8.38049 48.8356 9.91013 56.5256C11.4398 64.2156 15.2154 71.2794 20.7596 76.8235C26.3038 82.3677 33.3675 86.1434 41.0576 87.673C48.7476 89.2027 56.7185 88.4176 63.9623 85.4171C71.2062 82.4166 77.3976 77.3354 81.7536 70.8162C86.1097 64.2969 88.4347 56.6323 88.4347 48.7916C88.4236 38.281 84.2434 28.204 76.8112 20.7719C69.3791 13.3398 59.3022 9.15954 48.7916 9.14844ZM51.841 82.1948V57.94H60.9895C61.7982 57.94 62.5739 57.6187 63.1458 57.0469C63.7176 56.475 64.0389 55.6993 64.0389 54.8905C64.0389 54.0818 63.7176 53.3061 63.1458 52.7342C62.5739 52.1624 61.7982 51.8411 60.9895 51.8411H51.841V42.6926C51.841 41.0751 52.4836 39.5238 53.6274 38.38C54.7711 37.2363 56.3224 36.5937 57.94 36.5937H64.0389C64.8477 36.5937 65.6233 36.2724 66.1952 35.7005C66.7671 35.1286 67.0884 34.353 67.0884 33.5442C67.0884 32.7355 66.7671 31.9598 66.1952 31.3879C65.6233 30.816 64.8477 30.4948 64.0389 30.4948H57.94C54.7049 30.4948 51.6023 31.7799 49.3148 34.0674C47.0272 36.355 45.7421 39.4576 45.7421 42.6926V51.8411H36.5937C35.7849 51.8411 35.0092 52.1624 34.4374 52.7342C33.8655 53.3061 33.5442 54.0818 33.5442 54.8905C33.5442 55.6993 33.8655 56.475 34.4374 57.0469C35.0092 57.6187 35.7849 57.94 36.5937 57.94H45.7421V82.1948C37.1456 81.41 29.1825 77.3415 23.5093 70.8353C17.836 64.3292 14.8893 55.8864 15.2821 47.2631C15.6749 38.6399 19.3769 30.4999 25.6181 24.5365C31.8594 18.5731 40.1593 15.2452 48.7916 15.2452C57.4238 15.2452 65.7237 18.5731 71.965 24.5365C78.2062 30.4999 81.9082 38.6399 82.301 47.2631C82.6938 55.8864 79.7471 64.3292 74.0738 70.8353C68.4006 77.3415 60.4375 81.41 51.841 82.1948Z" fill="#DCDCDC"/>
</svg>
