<svg width="14" height="8" viewBox="0 0 14 8" fill="none" xmlns="http://www.w3.org/2000/svg">
<path d="M7.20814 0.180562L13.3647 6.33713C13.4219 6.39433 13.4673 6.46223 13.4982 6.53697C13.5292 6.61171 13.5451 6.69181 13.5451 6.7727C13.5451 6.8536 13.5292 6.9337 13.4982 7.00844C13.4673 7.08317 13.4219 7.15108 13.3647 7.20828C13.3075 7.26548 13.2396 7.31086 13.1649 7.34181C13.0901 7.37277 13.01 7.3887 12.9291 7.3887C12.8482 7.3887 12.7681 7.37277 12.6934 7.34181C12.6187 7.31086 12.5508 7.26548 12.4936 7.20828L6.77256 1.48652L1.05158 7.20828C0.936054 7.3238 0.779372 7.3887 0.615999 7.3887C0.452626 7.3887 0.295944 7.3238 0.180422 7.20828C0.0648996 7.09276 6.61473e-09 6.93608 7.34571e-09 6.7727C8.07669e-09 6.60933 0.0648996 6.45265 0.180422 6.33713L6.33699 0.180562C6.39416 0.12332 6.46206 0.0779095 6.5368 0.0469271C6.61154 0.0159446 6.69166 -1.35071e-06 6.77256 -1.34975e-06C6.85347 -1.34878e-06 6.93358 0.0159446 7.00832 0.0469271C7.08306 0.0779096 7.15096 0.12332 7.20814 0.180562Z" fill="#343330"/>
</svg>
