<?xml version="1.0" encoding="UTF-8"?>
<svg id="Calque_1" xmlns="http://www.w3.org/2000/svg" viewBox="0 0 242.12 219.1">
  <path d="M87.8,219.1c-15.92,0-31.35-5.54-43.64-15.66-13.06-10.76-26.08-21.56-38.23-33.27-.29-.28-.57-.57-.85-.86-10.09-10.78-4.32-28.56,10.05-31.96,2.22-.53,9.63-1.47,12-.94,2.04.46,3.8-1.52,3.1-3.49C20.27,104.79,10.17,78.71,2.61,51.91c-.24-.87-.4-1.76-.47-2.68-1.11-14.17,15.67-22.34,26.76-13.45,1.84,1.48,3.42,3.12,4.57,5.02,1.65,2.72,3.12,5.55,4.47,8.47,13.36,28.84,43.4,46.56,74.93,42.53.8-.1,1.6-.22,2.4-.35,18.62-3,24.74,3.69,29.68,17.91,3.55,10.21,7.38,20.34,10.63,30.65,10.96,34.81,1.93,54.94-30.72,69.16-2.62,1.14-5.21,2.33-7.79,3.56-8.82,4.2-18.49,6.36-28.28,6.36h-1Z"/>
  <path d="M242.12,48.25C173.08,5.23,108.13,7.47,46.98,46.93c-2.32,1.5-5.44.63-6.65-1.86l-8.96-18.42c-1.14-2.34-.11-5.16,2.26-6.24C104.25-11.83,173.5-8.25,242.12,48.25Z"/>
</svg>