<svg width="98" height="98" viewBox="0 0 98 98" fill="none" xmlns="http://www.w3.org/2000/svg">
<path opacity="0.2" d="M67.0884 12.1978H30.4947C25.6421 12.1978 20.9882 14.1255 17.5569 17.5568C14.1256 20.9881 12.1979 25.642 12.1979 30.4946V67.0883C12.1979 71.9409 14.1256 76.5948 17.5569 80.0261C20.9882 83.4574 25.6421 85.3851 30.4947 85.3851H67.0884C71.941 85.3851 76.5949 83.4574 80.0262 80.0261C83.4576 76.5948 85.3852 71.9409 85.3852 67.0883V30.4946C85.3852 25.642 83.4576 20.9881 80.0262 17.5568C76.5949 14.1255 71.941 12.1978 67.0884 12.1978ZM48.7916 64.0388C45.7759 64.0388 42.828 63.1446 40.3206 61.4692C37.8132 59.7938 35.8589 57.4124 34.7048 54.6264C33.5508 51.8403 33.2488 48.7745 33.8372 45.8168C34.4255 42.8591 35.8777 40.1423 38.01 38.0099C40.1424 35.8775 42.8592 34.4254 45.8169 33.837C48.7746 33.2487 51.8404 33.5507 54.6265 34.7047C57.4126 35.8587 59.7939 37.813 61.4693 40.3205C63.1447 42.8279 64.0389 45.7758 64.0389 48.7914C64.0389 52.8353 62.4325 56.7135 59.5731 59.573C56.7136 62.4324 52.8354 64.0388 48.7916 64.0388Z" fill="#DCDCDC"/>
<path d="M67.0884 9.14844H30.4948C24.8352 9.15449 19.4092 11.4054 15.4073 15.4073C11.4054 19.4092 9.15449 24.8352 9.14844 30.4948V67.0884C9.15449 72.748 11.4054 78.174 15.4073 82.1759C19.4092 86.1778 24.8352 88.4287 30.4948 88.4348H67.0884C72.748 88.4287 78.174 86.1778 82.1759 82.1759C86.1778 78.174 88.4287 72.748 88.4348 67.0884V30.4948C88.4287 24.8352 86.1778 19.4092 82.1759 15.4073C78.174 11.4054 72.748 9.15449 67.0884 9.14844ZM82.3358 67.0884C82.3358 71.1323 80.7294 75.0105 77.87 77.87C75.0105 80.7294 71.1323 82.3358 67.0884 82.3358H30.4948C26.4509 82.3358 22.5727 80.7294 19.7132 77.87C16.8538 75.0105 15.2474 71.1323 15.2474 67.0884V30.4948C15.2474 26.4509 16.8538 22.5727 19.7132 19.7132C22.5727 16.8538 26.4509 15.2474 30.4948 15.2474H67.0884C71.1323 15.2474 75.0105 16.8538 77.87 19.7132C80.7294 22.5727 82.3358 26.4509 82.3358 30.4948V67.0884ZM48.7916 30.4948C45.1728 30.4948 41.6353 31.5678 38.6264 33.5783C35.6175 35.5888 33.2724 38.4464 31.8875 41.7897C30.5027 45.133 30.1403 48.8119 30.8463 52.3611C31.5523 55.9104 33.2949 59.1706 35.8538 61.7294C38.4126 64.2883 41.6728 66.0309 45.2221 66.7369C48.7713 67.4429 52.4502 67.0805 55.7935 65.6957C59.1368 64.3108 61.9944 61.9657 64.0049 58.9568C66.0153 55.9479 67.0884 52.4104 67.0884 48.7916C67.0834 43.9405 65.1541 39.2896 61.7238 35.8593C58.2936 32.4291 53.6427 30.4998 48.7916 30.4948ZM48.7916 60.9895C46.3791 60.9895 44.0207 60.2741 42.0148 58.9338C40.0089 57.5935 38.4454 55.6884 37.5222 53.4595C36.599 51.2307 36.3574 48.7781 36.8281 46.4119C37.2987 44.0457 38.4605 41.8723 40.1664 40.1664C41.8723 38.4605 44.0457 37.2987 46.4119 36.8281C48.7781 36.3574 51.2307 36.599 53.4595 37.5222C55.6884 38.4454 57.5935 40.0089 58.9338 42.0148C60.2741 44.0207 60.9895 46.3791 60.9895 48.7916C60.9895 52.0267 59.7044 55.1293 57.4168 57.4168C55.1293 59.7044 52.0267 60.9895 48.7916 60.9895ZM73.1874 28.97C73.1874 29.8747 72.9191 30.7591 72.4165 31.5113C71.9139 32.2635 71.1995 32.8498 70.3636 33.196C69.5278 33.5422 68.6081 33.6328 67.7208 33.4563C66.8335 33.2798 66.0184 32.8442 65.3787 32.2045C64.739 31.5648 64.3034 30.7497 64.1269 29.8624C63.9504 28.9751 64.0409 28.0554 64.3872 27.2195C64.7334 26.3837 65.3197 25.6693 66.0719 25.1667C66.8241 24.6641 67.7085 24.3958 68.6132 24.3958C69.8263 24.3958 70.9898 24.8777 71.8476 25.7356C72.7055 26.5934 73.1874 27.7569 73.1874 28.97Z" fill="#DCDCDC"/>
</svg>
