<?xml version="1.0" encoding="UTF-8"?>
<svg id="Calque_2" data-name="Calque 2" xmlns="http://www.w3.org/2000/svg" viewBox="0 0 424.26 417.98">
  <path d="M200.96,73.28c63.36-5.96,113.7,43.91,109.19,107.19-4.08,57.19-57.42,86.12-83.16,132.84-3.6,6.54-8.53,25.89-17.57,21.93-3.71-1.63-11.23-19.92-14.09-24.93-29.03-50.82-86.08-77.61-81.16-144.82,3.37-46.04,40.06-87.82,86.79-92.21ZM174.51,206.63c45.98,48.28,121.68-20.51,76.16-70.66-46.52-51.25-123.95,20.48-76.16,70.66Z"/>
  <path d="M373.89,300.18c1.19.03,1.65.27,2.16,1.38l47.62,105.4c1.73,5.08-.44,8.96-5.49,10.54l-81.3.25-106.65-61.37c-.46-1.97,18.78-32.76,21.64-34.18l122.01-22.02Z"/>
  <path d="M6.66,417.98c-4.24-.84-7.87-5.85-6.28-10.25l20.44-44.84,126.05-22.66,132,75.5,1.29,2.24H6.66Z"/>
  <path d="M119.16,322.99c.83,2.7-2.84,2.29-4.8,2.68-27.56,5.47-55.56,9.24-83.2,14.3l24.49-52.98,63.5,35.99Z"/>
  <path d="M129.66,268.98l41.49,45.51c.44,2.38-1.08,1.19-2.45,1.5-1.98.45-4.01.9-6.05,1.07l-83.49-48.09h50.5Z"/>
  <path d="M366.16,280.97l-93.99,17.01c-.45-1.73.71-2,1.49-3,2.66-3.45,8.72-9.65,11.99-13.01,2.47-2.54,11.67-12.51,14.04-12.96,15.67,1.36,34.63-1.94,49.89.06,6.27.82,14.37,5.87,16.58,11.9Z"/>
</svg>