<?xml version="1.0" encoding="UTF-8"?>
<svg id="Calque_3" data-name="Calque 3" xmlns="http://www.w3.org/2000/svg" viewBox="0 0 424.26 434.64">
  <path d="M366.16,145.96c-1.2.08-2.17.65-3.02,1.46-34.71,33.28-69.75,66.29-105.03,99.01-.85.85-.85,1.9-1,3-1.97,14.78,1.85,34.04.07,49.07-.16,1.38-.3,2.69-1.15,3.85l-81.84,76.22c-4.57,1.4-9.92-2.27-9.94-7.19l1.89-65.4c-4.81,2.55-11.31,13.06-15.93,14.55-4.42,1.42-10.33-1-15.05-1.05l108.04-100.96c6.6-6.43,2.06-16.3-7.09-14.11l-110.47,103.56c-2.26.42-1.38-.99-1.49-2.48-.23-3.09-.45-9.6.66-12.28.91-2.19,12.01-9.48,13.34-13.23l-62.44-2.07c-6.38-1-8.84-8.47-4.08-12.96l77.57-73.44c3.83-2.41,11.74-1.72,16.5-1.59,11.95.32,25.31,2.9,37.08,2.98,1.42,0,2.58-.18,3.74-1.06l108.13-101.85,51.49,55.97Z"/>
  <path d="M418.29,52.23c-4.08,30.19-19.82,59.16-40.76,80.68l-51.35-53.43c24-19.12,52.82-33.36,83.7-36.05,4.98-.43,9.08,3.85,8.41,8.8Z"/>
  <path d="M92.87,337.19c8.12-1.88,13.28,5.77,8.29,12.29l-64.04,59.95c-6.52,4.64-15.17-2.84-11-10,16.41-15.53,32.39-31.68,49.04-46.96,2.94-2.69,15.53-14.77,17.72-15.27Z"/>
  <path d="M52.86,295.18c7.82-2.37,13.92,4.38,9.3,11.3-9.23,13.83-33.18,28.18-44.07,41.92-7.89,6.15-17.3-2.6-10.94-10.93,13.43-11.21,25.74-25.94,38.99-37.01,1.15-.96,6.01-5.06,6.71-5.28Z"/>
  <path d="M139.87,380.28c4.01,3.24,2.61,9.76-.68,13.23-13.16,13.9-29.45,25.37-42.53,39.47-8.49,5.63-17.62-4.12-9.05-13.04,13.27-13.81,29.19-25.64,42.59-39.41,2.5-2.01,7.15-2.27,9.67-.25Z"/>
</svg>