<svg width="77" height="77" viewBox="0 0 77 77" fill="none" xmlns="http://www.w3.org/2000/svg">
<path d="M31.5287 31.2007L33.0258 34.195C34.0165 36.1732 34.5087 37.1623 34.5087 38.2263C34.5087 39.2902 34.0149 40.2809 33.0274 42.2559L31.5303 45.2503C29.0296 50.2483 27.7809 52.7458 28.9293 53.8941C30.0761 55.0409 32.5751 53.7938 37.5731 51.2932L55.6508 42.2559C59.1676 40.4975 60.926 39.6183 60.926 38.2263C60.926 36.8342 59.1676 35.955 55.654 34.1966L37.5684 25.1578C32.5767 22.6603 30.0761 21.4084 28.9277 22.5568C27.7809 23.7036 29.0296 26.2042 31.5287 31.2007Z" fill="#A99B78"/>
<path d="M31.5287 31.2007L33.0258 34.195C34.0165 36.1732 34.5087 37.1623 34.5087 38.2263C34.5087 39.2902 34.0149 40.2809 33.0274 42.2559L31.5303 45.2503C29.0296 50.2483 27.7809 52.7458 28.9293 53.8941C30.0761 55.0409 32.5751 53.7938 37.5731 51.2932L55.6508 42.2559C59.1676 40.4975 60.926 39.6183 60.926 38.2263C60.926 36.8342 59.1676 35.955 55.654 34.1966L37.5684 25.1578C32.5767 22.6603 30.0761 21.4084 28.9277 22.5568C27.7809 23.7036 29.0296 26.2042 31.5287 31.2007Z" fill="#DCDCDC"/>
<path d="M31.3519 37.2195L29.1618 32.8411C29.0086 32.5346 28.7876 32.2672 28.5154 32.0591C28.2433 31.851 27.9273 31.7077 27.5914 31.6401L24.699 31.0604C24.3565 30.9918 24.0015 31.0242 23.6772 31.1536C23.3528 31.2831 23.0731 31.504 22.8719 31.7895C22.6708 32.075 22.5569 32.4128 22.5443 32.7618C22.5316 33.1108 22.6205 33.4559 22.8004 33.7553L25.137 37.6464C25.2421 37.8215 25.2977 38.0219 25.2977 38.2262C25.2977 38.4304 25.2421 38.6308 25.137 38.8059L22.8004 42.697C22.6205 42.9964 22.5316 43.3415 22.5443 43.6905C22.5569 44.0395 22.6708 44.3773 22.8719 44.6628C23.073 44.9483 23.3528 45.1692 23.6772 45.2987C24.0015 45.4281 24.3565 45.4605 24.699 45.3919L27.5914 44.8122C27.9273 44.7446 28.2433 44.6013 28.5154 44.3932C28.7876 44.1851 29.0086 43.9177 29.1618 43.6112L31.3519 39.2328C31.508 38.9202 31.5893 38.5756 31.5893 38.2261C31.5893 37.8767 31.508 37.5321 31.3519 37.2195Z" fill="#FF8400"/>
</svg>
