<svg width="98" height="98" viewBox="0 0 98 98" fill="none" xmlns="http://www.w3.org/2000/svg">
<path opacity="0.2" d="M85.3852 45.7421C77.7253 45.7566 70.2558 43.3557 64.0389 38.8808V59.4648C64.0389 66.3393 61.308 72.9323 56.447 77.7933C51.5859 82.6544 44.993 85.3853 38.1184 85.3853C31.2439 85.3853 24.6509 82.6544 19.7898 77.7933C14.9288 72.9323 12.1979 66.3393 12.1979 59.4648C12.1979 46.7103 21.4111 35.7055 33.5442 33.5442V49.817C31.8186 50.6355 30.3443 51.902 29.275 53.4845C28.2057 55.0669 27.5806 56.9073 27.4649 58.8136C27.3491 60.72 27.7471 62.6225 28.6172 64.3226C29.4872 66.0228 30.7976 67.4583 32.4115 68.4795C34.0254 69.5007 35.8837 70.0702 37.7927 70.1284C39.7017 70.1867 41.5913 69.7317 43.2645 68.8109C44.9377 67.89 46.3332 66.5371 47.3053 64.8932C48.2775 63.2493 48.7908 61.3746 48.7916 59.4648V9.14844H64.0389C64.0389 14.8098 66.2879 20.2394 70.2911 24.2426C74.2943 28.2458 79.7239 30.4948 85.3852 30.4948V45.7421Z" fill="#DCDCDC"/>
<path d="M85.3853 27.4454C80.5342 27.4404 75.8833 25.5111 72.453 22.0808C69.0228 18.6506 67.0935 13.9997 67.0884 9.14859C67.0884 8.33982 66.7672 7.56418 66.1953 6.99229C65.6234 6.4204 64.8477 6.09912 64.039 6.09912H48.7916C47.9828 6.09912 47.2072 6.4204 46.6353 6.99229C46.0634 7.56418 45.7421 8.33982 45.7421 9.14859V59.4649C45.7415 60.8291 45.3748 62.1681 44.6804 63.3424C43.9859 64.5166 42.9891 65.4829 41.7939 66.1406C40.5987 66.7983 39.2489 67.1232 37.8854 67.0815C36.5218 67.0398 35.1944 66.633 34.0417 65.9035C32.8889 65.174 31.953 64.1486 31.3316 62.9341C30.7102 61.7197 30.426 60.3607 30.5088 58.999C30.5915 57.6373 31.0381 56.3228 31.802 55.1925C32.5659 54.0623 33.6191 53.1577 34.8517 52.5731C35.3731 52.3257 35.8136 51.9353 36.1219 51.4475C36.4303 50.9596 36.5939 50.3943 36.5937 49.8171V33.5444C36.5939 33.0986 36.4964 32.6582 36.308 32.2543C36.1196 31.8503 35.8449 31.4925 35.5033 31.2061C35.1617 30.9197 34.7615 30.7118 34.3308 30.5968C33.9001 30.4818 33.4494 30.4626 33.0106 30.5407C19.4061 32.965 9.14844 45.3992 9.14844 59.4649C9.14844 67.1482 12.2006 74.5169 17.6336 79.9498C23.0665 85.3827 30.4351 88.4349 38.1184 88.4349C45.8018 88.4349 53.1704 85.3827 58.6033 79.9498C64.0363 74.5169 67.0884 67.1482 67.0884 59.4649V44.3281C72.7363 47.2748 79.015 48.8065 85.3853 48.7918C86.1941 48.7918 86.9697 48.4705 87.5416 47.8986C88.1135 47.3267 88.4348 46.5511 88.4348 45.7423V30.4949C88.4348 29.6861 88.1135 28.9105 87.5416 28.3386C86.9697 27.7667 86.1941 27.4454 85.3853 27.4454ZM82.3358 42.5556C76.3765 42.0275 70.6702 39.9007 65.8191 36.3995C65.3631 36.0716 64.8255 35.8761 64.2655 35.8344C63.7055 35.7927 63.1448 35.9064 62.6453 36.163C62.1458 36.4197 61.7269 36.8093 61.4347 37.2889C61.1425 37.7684 60.9885 38.3194 60.9895 38.881V59.4649C60.9895 65.5307 58.5799 71.348 54.2907 75.6372C50.0016 79.9263 44.1842 82.336 38.1184 82.336C32.0527 82.336 26.2353 79.9263 21.9462 75.6372C17.657 71.348 15.2474 65.5307 15.2474 59.4649C15.2474 49.5922 21.5903 40.7373 30.4948 37.5087V48.0561C28.5235 49.3732 26.927 51.1786 25.8611 53.2963C24.7951 55.4139 24.296 57.7717 24.4123 60.1396C24.5287 62.5076 25.2566 64.805 26.525 66.808C27.7934 68.811 29.5592 70.4511 31.6501 71.5687C33.741 72.6862 36.0858 73.2429 38.4559 73.1846C40.826 73.1263 43.1406 72.455 45.174 71.236C47.2075 70.017 48.8904 68.292 50.0588 66.2291C51.2273 64.1662 51.8413 61.8357 51.8411 59.4649V12.1981H61.1801C61.8659 17.5693 64.3153 22.5608 68.1442 26.3897C71.973 30.2185 76.9646 32.668 82.3358 33.3538V42.5556Z" fill="#DCDCDC"/>
</svg>
