<svg width="71" height="71" viewBox="0 0 71 71" fill="none" xmlns="http://www.w3.org/2000/svg">
<path opacity="0.2" d="M35.0793 8.77002C30.4589 8.76944 25.9198 9.98567 21.9186 12.2963C17.9175 14.607 14.5955 17.9307 12.2867 21.9329C9.9779 25.9351 8.76383 30.4748 8.76661 35.0952C8.76938 39.7156 9.9889 44.2538 12.3025 48.2533L8.885 58.5002C8.75617 58.8865 8.73747 59.3011 8.83101 59.6974C8.92454 60.0937 9.1266 60.4562 9.41455 60.7441C9.70249 61.0321 10.0649 61.2341 10.4613 61.3277C10.8576 61.4212 11.2721 61.4025 11.6584 61.2737L21.9054 57.8562C25.3994 59.8762 29.3114 61.0654 33.3386 61.3315C37.3657 61.5977 41.4001 60.9338 45.1296 59.3911C48.8591 57.8485 52.1837 55.4685 54.8462 52.4353C57.5087 49.4021 59.4376 45.7971 60.4837 41.899C61.5299 38.001 61.6652 33.9146 60.8793 29.9559C60.0933 25.9972 58.4071 22.2724 55.9512 19.0697C53.4953 15.867 50.3354 13.2723 46.7161 11.4863C43.0969 9.70029 39.1152 8.77089 35.0793 8.77002ZM41.6566 50.4265C35.8419 50.4265 30.2653 48.1166 26.1537 44.005C22.042 39.8934 19.7321 34.3168 19.7321 28.5021C19.7321 26.1762 20.6561 23.9455 22.3008 22.3009C23.9454 20.6562 26.176 19.7323 28.5019 19.7323L32.8868 28.5021L29.5105 33.5639C30.8498 36.7641 33.3945 39.3089 36.5948 40.6482L41.6566 37.2719L50.4264 41.6567C50.4264 43.9826 49.5025 46.2133 47.8578 47.8579C46.2132 49.5026 43.9825 50.4265 41.6566 50.4265Z" fill="#05482C"/>
<path d="M51.4074 39.6941L42.6376 35.3092C42.2924 35.1372 41.9079 35.0592 41.5229 35.0833C41.138 35.1074 40.7662 35.2325 40.4451 35.4462L36.4192 38.132C34.5711 37.116 33.0503 35.5952 32.0343 33.7471L34.7201 29.7212C34.9338 29.4001 35.0589 29.0283 35.083 28.6434C35.107 28.2584 35.0291 27.8739 34.8571 27.5287L30.4722 18.7589C30.2905 18.3919 30.0095 18.0831 29.6613 17.8676C29.313 17.652 28.9113 17.5383 28.5018 17.5394C25.5944 17.5394 22.8061 18.6943 20.7503 20.7502C18.6945 22.806 17.5395 25.5943 17.5395 28.5016C17.5468 34.8956 20.09 41.0256 24.6112 45.5469C29.1324 50.0681 35.2625 52.6113 41.6564 52.6186C43.096 52.6186 44.5215 52.335 45.8515 51.7841C47.1815 51.2332 48.39 50.4257 49.4079 49.4078C50.4259 48.3899 51.2333 47.1814 51.7842 45.8514C52.3351 44.5214 52.6187 43.0959 52.6187 41.6563C52.619 41.249 52.5058 40.8497 52.2918 40.5031C52.0779 40.1565 51.7716 39.8764 51.4074 39.6941ZM41.6564 48.2337C36.425 48.2279 31.4094 46.1471 27.7102 42.4479C24.011 38.7487 21.9302 33.7331 21.9244 28.5016C21.924 26.981 22.4505 25.5071 23.4143 24.3309C24.3782 23.1547 25.7198 22.3488 27.2109 22.0504L30.3571 28.3536L27.6796 32.3384C27.4795 32.6386 27.3566 32.9834 27.3217 33.3424C27.2868 33.7015 27.341 34.0635 27.4795 34.3966C29.0482 38.1248 32.0141 41.0907 35.7423 42.6594C36.0764 42.8041 36.4412 42.8633 36.8039 42.8317C37.1665 42.8001 37.5156 42.6787 37.8197 42.4785L41.8264 39.8092L48.1297 42.9554C47.8288 44.4487 47.019 45.7912 45.8384 46.7539C44.6578 47.7165 43.1797 48.2396 41.6564 48.2337ZM35.0791 6.57715C30.1583 6.57608 25.3211 7.84901 21.0383 10.2721C16.7554 12.6951 13.1728 16.1857 10.6392 20.4041C8.10567 24.6225 6.70739 29.425 6.58052 34.3441C6.45365 39.2633 7.60251 44.1314 9.91527 48.4748L6.80473 57.8064C6.54708 58.5791 6.50969 59.4081 6.69675 60.2008C6.88381 60.9935 7.28794 61.7184 7.86383 62.2943C8.43972 62.8701 9.16462 63.2743 9.95727 63.4613C10.7499 63.6484 11.579 63.611 12.3516 63.3533L21.6832 60.2428C25.5057 62.2759 29.7411 63.4115 34.0679 63.5633C38.3947 63.7151 42.6993 62.8792 46.6549 61.119C50.6104 59.3589 54.113 56.7207 56.8967 53.4048C59.6805 50.0889 61.6722 46.1823 62.7207 41.9817C63.7693 37.7811 63.8471 33.3968 62.9482 29.1617C62.0494 24.9265 60.1975 20.9518 57.5331 17.5392C54.8688 14.1266 51.462 11.3658 47.5714 9.4664C43.6808 7.56701 39.4086 6.57892 35.0791 6.57715ZM35.0791 59.1959C30.8394 59.1988 26.6741 58.0823 23.0042 55.9593C22.7355 55.8035 22.4368 55.7065 22.1278 55.6749C21.8188 55.6432 21.5066 55.6776 21.2119 55.7757L10.9622 59.1959L14.3796 48.9462C14.4782 48.6517 14.513 48.3396 14.4818 48.0306C14.4506 47.7216 14.3541 47.4228 14.1988 47.1539C11.5403 42.5577 10.473 37.2127 11.1623 31.9481C11.8516 26.6834 14.259 21.7933 18.0111 18.0365C21.7632 14.2797 26.6502 11.8661 31.914 11.1701C37.1778 10.4742 42.5242 11.5348 47.1237 14.1874C51.7232 16.84 55.3188 20.9363 57.3526 25.841C59.3865 30.7456 59.7449 36.1843 58.3723 41.3134C56.9997 46.4426 53.9728 50.9754 49.7612 54.2087C45.5496 57.442 40.3887 59.195 35.0791 59.1959Z" fill="#05482C"/>
</svg>
