<svg width="98" height="98" viewBox="0 0 98 98" fill="none" xmlns="http://www.w3.org/2000/svg">
<path opacity="0.2" d="M86.3725 27.266C86.1378 26.3257 85.6824 25.4549 85.0441 24.7257C84.4057 23.9965 83.6027 23.43 82.7017 23.073C69.9397 18.1633 48.7916 18.2967 48.7916 18.2967C48.7916 18.2967 27.6435 18.1633 14.8662 23.092C13.9652 23.449 13.1623 24.0156 12.5239 24.7448C11.8855 25.474 11.4301 26.3448 11.1954 27.2851C10.3187 30.7005 9.14844 37.3903 9.14844 48.7915C9.14844 60.1927 10.3187 66.8825 11.2106 70.317C11.4465 71.2522 11.9008 72.1181 12.5363 72.8437C13.1718 73.5693 13.9702 74.1338 14.8662 74.4909C27.6435 79.4196 48.7916 79.2862 48.7916 79.2862C48.7916 79.2862 69.9397 79.4196 82.717 74.4909C83.6158 74.1358 84.4173 73.5721 85.0555 72.8464C85.6938 72.1207 86.1504 71.2538 86.3878 70.317C87.2798 66.8863 88.45 60.1927 88.45 48.7915C88.45 37.3903 87.2645 30.7005 86.3725 27.266ZM42.6926 60.9894V36.5936L60.9895 48.7915L42.6926 60.9894Z" fill="#DCDCDC"/>
<path d="M62.682 46.2531L44.3851 34.0552C43.9258 33.7487 43.3918 33.5727 42.8403 33.546C42.2887 33.5193 41.7402 33.6428 41.2534 33.9035C40.7665 34.1641 40.3596 34.552 40.076 35.0259C39.7924 35.4997 39.6429 36.0417 39.6432 36.5939V60.9897C39.6429 61.5419 39.7924 62.0838 40.076 62.5577C40.3596 63.0315 40.7665 63.4195 41.2534 63.6801C41.7402 63.9407 42.2887 64.0643 42.8403 64.0376C43.3918 64.0108 43.9258 63.8348 44.3851 63.5284L62.682 51.3305C63.1003 51.0521 63.4433 50.6747 63.6806 50.2318C63.9178 49.7889 64.042 49.2942 64.042 48.7918C64.042 48.2893 63.9178 47.7947 63.6806 47.3518C63.4433 46.9089 63.1003 46.5315 62.682 46.2531ZM45.7422 55.291V42.3117L55.4929 48.7918L45.7422 55.291ZM89.323 26.5001C88.9638 25.0949 88.2756 23.7952 87.3153 22.7082C86.3549 21.6213 85.1499 20.7783 83.7996 20.2487C70.7326 15.2018 49.9352 15.2476 48.7916 15.2476C47.6481 15.2476 26.8507 15.2018 13.7837 20.2487C12.4334 20.7783 11.2283 21.6213 10.268 22.7082C9.30764 23.7952 8.61949 25.0949 8.26031 26.5001C7.27305 30.3043 6.099 37.2572 6.099 48.7918C6.099 60.3264 7.27305 67.2792 8.26031 71.0834C8.61895 72.4894 9.30686 73.7899 10.2672 74.8775C11.2276 75.9651 12.4329 76.8087 13.7837 77.3387C26.3018 82.1683 45.8946 82.336 48.5401 82.336H49.0432C51.6886 82.336 71.2929 82.1683 83.7996 77.3387C85.1503 76.8087 86.3556 75.9651 87.316 74.8775C88.2764 73.7899 88.9643 72.4894 89.323 71.0834C90.3102 67.2716 91.4843 60.3264 91.4843 48.7918C91.4843 37.2572 90.3102 30.3043 89.323 26.5001ZM83.4184 69.5739C83.3022 70.0416 83.0769 70.4751 82.7608 70.8389C82.4448 71.2026 82.047 71.4863 81.6002 71.6666C69.5357 76.3247 49.0165 76.2409 48.7726 76.2409C48.5286 76.2409 28.0476 76.3095 15.9907 71.6666C15.5439 71.4863 15.1461 71.2026 14.8301 70.8389C14.514 70.4751 14.2887 70.0416 14.1725 69.5739C13.2653 66.0937 12.1979 59.6822 12.1979 48.7918C12.1979 37.9014 13.2653 31.4898 14.1649 28.0287C14.2789 27.5582 14.5032 27.1217 14.8194 26.7551C15.1356 26.3886 15.5345 26.1026 15.9831 25.9207C28.0476 21.2779 48.5629 21.3465 48.8107 21.3465C49.0585 21.3465 69.5357 21.2779 81.5925 25.9207C82.0394 26.1011 82.4372 26.3848 82.7532 26.7485C83.0693 27.1123 83.2946 27.5458 83.4108 28.0134C84.318 31.4898 85.3853 37.9014 85.3853 48.7918C85.3853 59.6822 84.318 66.0937 83.4184 69.5549V69.5739Z" fill="#DCDCDC"/>
</svg>
